<svg width="71" height="72" viewBox="0 0 71 72" fill="none" xmlns="http://www.w3.org/2000/svg">
<path d="M32.3604 39.1411C30.1415 36.9222 30.1415 33.3247 32.3604 31.1058L41.881 21.5852C45.6195 17.8467 51.6808 17.8467 55.4192 21.5851L55.8436 23.6931L40.3957 39.1411C38.1768 41.36 34.5792 41.36 32.3604 39.1411Z" fill="#5AC379"/>
<path d="M53.033 53.6777C60.9452 45.7655 62.4452 33.8693 57.5331 24.4465C56.9825 23.3902 56.2364 22.4519 55.4192 21.5851C51.6808 17.8467 45.6195 17.8467 41.881 21.5852L33.4561 30.01C37.1984 26.3201 43.2232 26.3363 46.9455 30.0586C47.7794 30.8925 48.4562 31.892 48.7063 33.0445C49.6596 37.4375 48.4089 42.2312 44.9977 45.6424C39.6724 50.9677 31.0383 50.9677 25.713 45.6424C20.3876 40.317 20.3877 31.6829 25.713 26.3576L35.3553 16.7153C39.7931 12.2775 39.7931 5.08243 35.3553 0.644662L18.4082 17.5918L18.4246 17.6083C18.329 17.6952 18.232 17.7852 18.1336 17.8784C17.9849 18.0191 17.833 18.167 17.6777 18.3223C7.91453 28.0855 7.91457 43.9146 17.6777 53.6777C27.4408 63.4408 43.2699 63.4408 53.033 53.6777Z" fill="white"/>
</svg>
