<svg width="33" height="32" viewBox="0 0 33 32" fill="none" xmlns="http://www.w3.org/2000/svg">
<path d="M0.690897 15.8636C0.690085 18.5144 1.40654 21.1028 2.76901 23.3843L0.560547 31.1797L8.81259 29.0879C11.0861 30.2858 13.6458 30.918 16.251 30.9189H16.2579C24.8368 30.9189 31.8202 24.1701 31.8238 15.8753C31.8255 11.8558 30.2077 8.07631 27.2685 5.23288C24.3299 2.38944 20.4215 0.82271 16.2574 0.820915C7.67748 0.820915 0.694376 7.56907 0.690897 15.8636Z" fill="url(#paint0_linear_917_68)"/>
<path d="M0.135394 15.8583C0.134351 18.6047 0.876671 21.2857 2.28761 23.6489L0 31.7236L8.54805 29.5569C10.9032 30.7985 13.5548 31.4529 16.2534 31.4538H16.2603C25.1471 31.4538 32.3812 24.4625 32.385 15.8709C32.3865 11.7069 30.7107 7.79165 27.6665 4.8462C24.6219 1.90085 20.5735 0.278067 16.2603 0.276161C7.37212 0.276161 0.138931 7.26642 0.135336 15.8583H0.135394ZM5.22582 23.242L4.90673 22.7521C3.56508 20.6899 2.85679 18.3066 2.85795 15.8593C2.86079 8.71801 8.87271 2.90821 16.2654 2.90821C19.8454 2.90962 23.21 4.25857 25.7406 6.70666C28.271 9.15457 29.6635 12.4089 29.6624 15.8699C29.6593 23.0114 23.6472 28.8221 16.2604 28.8221H16.2552C13.8498 28.8208 11.491 28.1966 9.43371 27.0163L8.94409 26.7358L3.87152 28.0214L5.22582 23.242Z" fill="url(#paint1_linear_917_68)"/>
<path fill-rule="evenodd" clip-rule="evenodd" d="M12.2298 9.34419C11.928 8.69564 11.6103 8.68258 11.3231 8.6712C11.0883 8.6615 10.8194 8.66212 10.551 8.66212C10.2824 8.66212 9.84584 8.75965 9.47671 9.1494C9.10735 9.53915 8.06641 10.4813 8.06641 12.3976C8.06641 14.3141 9.51028 16.1657 9.71155 16.4258C9.91299 16.6856 12.4989 20.7436 16.594 22.3048C19.9975 23.6023 20.69 23.3442 21.4288 23.2793C22.1675 23.2144 23.8125 22.3373 24.1482 21.4278C24.484 20.5184 24.484 19.739 24.3833 19.576C24.2825 19.4137 24.0139 19.3163 23.611 19.1215C23.208 18.9268 21.2273 17.9844 20.8579 17.8545C20.4885 17.7247 20.2199 17.6598 19.9513 18.0497C19.6827 18.4393 18.9111 19.3163 18.6759 19.5761C18.4409 19.8364 18.2058 19.8688 17.8029 19.674C17.3999 19.4787 16.1023 19.0678 14.5629 17.741C13.3652 16.7087 12.5566 15.4338 12.3214 15.0438C12.0864 14.6543 12.2963 14.4433 12.4984 14.2491C12.6793 14.0746 12.9014 13.7945 13.1028 13.567C13.3039 13.3396 13.3711 13.1773 13.5054 12.9176C13.6397 12.6575 13.5725 12.43 13.4718 12.2353C13.3711 12.0405 12.5881 10.1143 12.2298 9.34419Z" fill="white"/>
<defs>
<linearGradient id="paint0_linear_917_68" x1="16.1921" y1="31.1797" x2="16.1921" y2="0.820887" gradientUnits="userSpaceOnUse">
<stop stop-color="#20B038"/>
<stop offset="1" stop-color="#60D66A"/>
</linearGradient>
<linearGradient id="paint1_linear_917_68" x1="16.1926" y1="31.7237" x2="16.1926" y2="0.276179" gradientUnits="userSpaceOnUse">
<stop stop-color="#F9F9F9"/>
<stop offset="1" stop-color="white"/>
</linearGradient>
</defs>
</svg>
