<svg width="33" height="32" viewBox="0 0 33 32" fill="none" xmlns="http://www.w3.org/2000/svg">
<path d="M31.6884 20.0011C29.2698 17.4896 22.6629 18.513 21.082 18.6989C18.7563 16.4661 17.1739 13.7673 16.6165 12.8368C17.4541 10.3253 18.0116 7.81233 18.1045 5.11499C18.1045 2.78931 17.1739 0.276367 14.5695 0.276367C13.639 0.276367 12.8013 0.835275 12.3367 1.57858C11.2204 3.53261 11.6849 7.44067 13.4531 11.4402C12.4297 14.3248 11.4991 17.1151 8.89467 22.0466C6.19591 23.163 0.521067 25.7688 0.0565022 28.5591C-0.129324 29.3967 0.149415 30.2344 0.801235 30.8848C1.45163 31.4451 2.28784 31.7238 3.12549 31.7238C6.56756 31.7238 9.91672 26.9781 12.2438 22.9786C14.1979 22.3268 17.2683 21.3962 20.3387 20.8387C23.9666 24.0021 27.1299 24.4666 28.8052 24.4666C31.038 24.4666 31.8756 23.5361 32.1544 22.6984C32.6189 21.7693 32.3402 20.7458 31.6884 20.0011ZM29.3627 21.582C29.2698 22.2338 28.4321 22.8842 26.9441 22.5126C25.1759 22.048 23.5949 21.2104 22.1984 20.094C23.4077 19.9082 26.1064 19.6294 28.0605 20.0011C28.8052 20.1869 29.5485 20.6515 29.3627 21.582ZM13.8248 2.41622C14.0106 2.13749 14.2893 1.95166 14.5695 1.95166C15.4072 1.95166 15.593 2.97513 15.593 3.81278C15.5001 5.76681 15.1284 7.72084 14.4766 9.58196C13.0815 5.85829 13.3602 3.25387 13.8248 2.41622ZM13.639 20.4656C14.3837 18.9776 15.4072 16.3718 15.7788 15.2554C16.6165 16.6505 18.0116 18.3258 18.7563 19.0705C18.7563 19.1634 15.8717 19.7223 13.639 20.4656ZM8.14994 24.1879C6.01008 27.7229 3.77731 29.9571 2.56801 29.9571C2.38219 29.9571 2.19636 29.8641 2.0091 29.7712C1.73037 29.5854 1.63745 29.3067 1.73037 28.9336C2.0091 27.6299 4.4277 25.8617 8.14994 24.1879Z" fill="#E53935"/>
</svg>
