<svg width="24" height="24" viewBox="0 0 24 24" fill="none" xmlns="http://www.w3.org/2000/svg">
<path d="M2.45845 8.95357C8.24842 4.48211 15.7517 4.48211 21.5416 8.95357C21.8694 9.20675 22.3405 9.14623 22.5936 8.81839C22.8468 8.49056 22.7863 8.01956 22.4585 7.76638C16.1284 2.87784 7.87165 2.87784 1.54162 7.76638C1.21379 8.01956 1.15327 8.49056 1.40644 8.81839C1.65962 9.14623 2.13062 9.20675 2.45845 8.95357Z" fill="white"/>
<path d="M5.3683 12.4336C9.39829 9.32209 14.6116 9.32209 18.6416 12.4336C18.9695 12.6868 19.4405 12.6262 19.6936 12.2983C19.9467 11.9705 19.8862 11.4995 19.5583 11.2463C14.9883 7.71786 9.02161 7.71786 4.4516 11.2463C4.12374 11.4995 4.06316 11.9705 4.3163 12.2983C4.56944 12.6262 5.04044 12.6868 5.3683 12.4336Z" fill="white"/>
<path d="M16.7407 16.083C13.861 13.8524 10.1289 13.8524 7.24923 16.083C6.92177 16.3366 6.45068 16.2768 6.19703 15.9493C5.94337 15.6219 6.00321 15.1508 6.33067 14.8971C9.75105 12.2477 14.2389 12.2477 17.6592 14.8971C17.9867 15.1508 18.0465 15.6219 17.7929 15.9493C17.5392 16.2768 17.0681 16.3366 16.7407 16.083Z" fill="white"/>
<path d="M9.85831 19.7436C11.1683 18.7321 12.8416 18.7321 14.1516 19.7436C14.4794 19.9968 14.9504 19.9362 15.2036 19.6084C15.4567 19.2805 15.3962 18.8095 15.0683 18.5564C13.2183 17.1279 10.7916 17.1279 8.94157 18.5564C8.61371 18.8095 8.55316 19.2805 8.80631 19.6084C9.05946 19.9362 9.53046 19.9968 9.85831 19.7436Z" fill="white"/>
</svg>
