<svg width="24" height="24" viewBox="0 0 24 24" fill="none" xmlns="http://www.w3.org/2000/svg">
<path d="M7.0946 9C6.54232 9 6.0946 9.44772 6.0946 10C6.0946 10.5523 6.54232 11 7.0946 11H7.10359C7.65587 11 8.10359 10.5523 8.10359 10C8.10359 9.44772 7.65587 9 7.10359 9H7.0946Z" fill="white"/>
<path d="M12.75 10C12.75 9.58579 13.0858 9.25 13.5 9.25H17C17.4142 9.25 17.75 9.58579 17.75 10C17.75 10.4142 17.4142 10.75 17 10.75H13.5C13.0858 10.75 12.75 10.4142 12.75 10Z" fill="white"/>
<path d="M7 14.75C6.58579 14.75 6.25 15.0858 6.25 15.5C6.25 15.9142 6.58579 16.25 7 16.25H17C17.4142 16.25 17.75 15.9142 17.75 15.5C17.75 15.0858 17.4142 14.75 17 14.75H7Z" fill="white"/>
<path d="M10.0946 9C9.54232 9 9.0946 9.44772 9.0946 10C9.0946 10.5523 9.54232 11 10.0946 11H10.1036C10.6559 11 11.1036 10.5523 11.1036 10C11.1036 9.44772 10.6559 9 10.1036 9H10.0946Z" fill="white"/>
<path fill-rule="evenodd" clip-rule="evenodd" d="M7.5 3.25C6.8736 3.25 6.2857 3.26967 5.74594 3.34583C4.33727 3.50291 3.23915 3.93847 2.55737 4.97376C1.91813 5.94445 1.75 7.30259 1.75 9V15C1.75 16.6974 1.91813 18.0555 2.55737 19.0262C3.23915 20.0615 4.33727 20.4971 5.74593 20.6542C6.28569 20.7303 6.8736 20.75 7.5 20.75H16.5C17.1264 20.75 17.7143 20.7303 18.2541 20.6542C19.6627 20.4971 20.7609 20.0615 21.4426 19.0262C22.0819 18.0555 22.25 16.6974 22.25 15V9C22.25 7.30259 22.0819 5.94445 21.4426 4.97376C20.7609 3.93847 19.6627 3.50291 18.2541 3.34583C17.7143 3.26967 17.1264 3.25 16.5 3.25H7.5ZM5.94607 4.83246C6.38302 4.77004 6.89105 4.75 7.5 4.75H16.5C17.109 4.75 17.617 4.77004 18.0539 4.83246C18.0619 4.8336 18.0698 4.8346 18.0778 4.83548C19.2934 4.96953 19.8611 5.29944 20.1899 5.79874C20.5631 6.36555 20.75 7.31741 20.75 9V15C20.75 16.6826 20.5631 17.6345 20.1899 18.2013C19.8611 18.7006 19.2934 19.0305 18.0778 19.1645L18.0646 19.1661L18.0539 19.1675C17.617 19.23 17.109 19.25 16.5 19.25H7.5C6.89105 19.25 6.38302 19.23 5.94607 19.1675C5.93813 19.1664 5.93017 19.1654 5.9222 19.1645C4.70657 19.0305 4.13894 18.7006 3.81013 18.2013C3.43687 17.6345 3.25 16.6826 3.25 15V9C3.25 7.31741 3.43687 6.36555 3.81013 5.79874C4.13894 5.29944 4.70657 4.96953 5.9222 4.83548C5.93017 4.8346 5.93813 4.8336 5.94607 4.83246Z" fill="white"/>
</svg>
