<svg width="24" height="24" viewBox="0 0 24 24" fill="none" xmlns="http://www.w3.org/2000/svg">
<path fill-rule="evenodd" clip-rule="evenodd" d="M12 1.25C7.45579 1.25 3.75 4.95579 3.75 9.5V14.5C3.75 19.0442 7.45579 22.75 12 22.75C16.5442 22.75 20.25 19.0442 20.25 14.5V9.5C20.25 4.95579 16.5442 1.25 12 1.25ZM5.25 9.5C5.25 6.03763 7.88446 3.16704 11.25 2.79159V5.37764C10.3754 5.68599 9.75 6.51886 9.75 7.5V9.5C9.75 10.7442 10.7558 11.75 12 11.75C13.231 11.75 14.25 10.7475 14.25 9.5V7.5C14.25 6.51827 13.6189 5.68823 12.75 5.37915V2.79159C16.1155 3.16704 18.75 6.03763 18.75 9.5V14.5C18.75 18.2158 15.7158 21.25 12 21.25C8.28421 21.25 5.25 18.2158 5.25 14.5V9.5ZM11.25 7.5C11.25 7.08421 11.5842 6.75 12 6.75C12.409 6.75 12.75 7.08746 12.75 7.5V9.5C12.75 9.91254 12.409 10.25 12 10.25C11.5842 10.25 11.25 9.91579 11.25 9.5V7.5Z" fill="white"/>
</svg>
