<svg width="24" height="24" viewBox="0 0 24 24" fill="none" xmlns="http://www.w3.org/2000/svg">
<path fill-rule="evenodd" clip-rule="evenodd" d="M12 1.25C6.06294 1.25 1.25 6.06294 1.25 12C1.25 17.9371 6.06294 22.75 12 22.75C17.9371 22.75 22.75 17.9371 22.75 12C22.75 6.06294 17.9371 1.25 12 1.25ZM2.75 12C2.75 11.2239 2.84559 10.4701 3.02563 9.74973C3.09605 9.7473 3.1673 9.73482 3.23754 9.71137C4.46283 9.30224 5.70983 8.98127 6.96918 8.74848C6.72691 10.9092 6.72691 13.0907 6.96917 15.2515C5.70982 15.0187 4.46283 14.6977 3.23754 14.2886C3.16827 14.2655 3.09693 14.2529 3.02567 14.2504C2.8456 13.53 2.75 12.7762 2.75 12ZM7.1871 16.8129C6.03022 16.6194 4.88226 16.3557 3.74969 16.0217C3.74839 16.0675 3.74298 16.1123 3.73382 16.1557C4.62646 17.9278 6.0722 19.3735 7.8443 20.2662C7.8877 20.257 7.93249 20.2516 7.97831 20.2503C7.64432 19.1177 7.38058 17.9698 7.1871 16.8129ZM9.74954 20.9743C9.7471 20.9031 9.73449 20.8317 9.71137 20.7625C9.30223 19.5372 8.98127 18.2902 8.74848 17.0308C10.9092 17.2731 13.0907 17.2731 15.2515 17.0308C15.0187 18.2902 14.6977 19.5372 14.2886 20.7625C14.2652 20.8327 14.2527 20.904 14.2502 20.9744C13.5299 21.1544 12.7761 21.25 12 21.25C11.2238 21.25 10.4699 21.1544 9.74954 20.9743ZM15.9933 20.346C16.3407 19.1824 16.6139 18.0024 16.8129 16.8129C17.9698 16.6194 19.1177 16.3557 20.2503 16.0217C20.2516 16.0675 20.257 16.1123 20.2662 16.1557C19.3464 17.9816 17.8394 19.4611 15.9933 20.346ZM17.0308 8.74847C17.2731 10.9092 17.2731 13.0907 17.0308 15.2515C18.2902 15.0187 19.5372 14.6977 20.7625 14.2886C20.8317 14.2655 20.9031 14.2529 20.9743 14.2504C21.1544 13.53 21.25 12.7762 21.25 12C21.25 11.2239 21.1544 10.4701 20.9744 9.74973C20.904 9.7473 20.8327 9.73482 20.7625 9.71137C19.5372 9.30223 18.2902 8.98127 17.0308 8.74847ZM15.4914 15.4914C15.7862 13.1733 15.7862 10.8266 15.4914 8.50853C13.1733 8.21379 10.8266 8.21379 8.50854 8.50853C8.21379 10.8266 8.21379 13.1733 8.50853 15.4914C10.8266 15.7862 13.1733 15.7862 15.4914 15.4914ZM20.346 8.00671C19.1824 7.65924 18.0024 7.38603 16.8129 7.1871C16.6139 5.99762 16.3407 4.81756 15.9933 3.65398C17.8939 4.565 19.435 6.10611 20.346 8.00671ZM14.2886 3.23754C14.2652 3.1673 14.2527 3.09604 14.2502 3.02562C13.5299 2.84558 12.7761 2.75 12 2.75C11.2238 2.75 10.4699 2.8456 9.74954 3.02568C9.7471 3.09693 9.73449 3.16828 9.71137 3.23754C9.30224 4.46283 8.98128 5.70983 8.74848 6.96918C10.9092 6.72691 13.0907 6.72691 15.2515 6.96917C15.0187 5.70982 14.6977 4.46283 14.2886 3.23754ZM7.84429 3.73382C6.01836 4.65359 4.53892 6.16055 3.654 8.00671C4.81758 7.65924 5.99763 7.38604 7.18711 7.18711C7.38059 6.03022 7.64432 4.88226 7.97831 3.74969C7.93249 3.74839 7.8877 3.74298 7.84429 3.73382Z" fill="white"/>
</svg>
