<svg width="24" height="24" viewBox="0 0 24 24" fill="none" xmlns="http://www.w3.org/2000/svg">
<path fill-rule="evenodd" clip-rule="evenodd" d="M14.75 10.5C14.75 11.7588 13.9043 12.82 12.75 13.1465V15.5C12.75 15.9142 12.4142 16.25 12 16.25C11.5858 16.25 11.25 15.9142 11.25 15.5V13.1465C10.0957 12.82 9.25 11.7588 9.25 10.5C9.25 8.98122 10.4812 7.75 12 7.75C13.5188 7.75 14.75 8.98122 14.75 10.5ZM10.75 10.5C10.75 9.80964 11.3096 9.25 12 9.25C12.6904 9.25 13.25 9.80964 13.25 10.5C13.25 11.1904 12.6904 11.75 12 11.75C11.3096 11.75 10.75 11.1904 10.75 10.5Z" fill="white"/>
<path fill-rule="evenodd" clip-rule="evenodd" d="M14.2433 1.69558C12.8117 1.11148 11.1982 1.11148 9.76663 1.69558L4.19768 3.97513C3.64572 4.19798 3.18934 4.62091 2.87379 5.0903C2.55796 5.56011 2.33997 6.14078 2.33997 6.72997V11.12C2.33997 16.3593 6.12684 21.2263 11.2902 22.6529L11.2926 22.6536C11.7518 22.7788 12.2481 22.7788 12.7073 22.6536L12.7097 22.6529C17.8728 21.2264 21.6595 16.3589 21.66 11.12L21.67 6.73168L21.67 6.72997C21.67 6.13809 21.4476 5.55689 21.1314 5.08887C20.8153 4.62094 20.359 4.19841 19.8132 3.97552L14.2433 1.69558ZM4.76009 5.36572L10.3333 3.08443C11.4014 2.64874 12.6085 2.64881 13.6766 3.08443L19.2467 5.36443C19.4605 5.45164 19.6998 5.64925 19.8885 5.92858C20.0771 6.20776 20.1698 6.50196 20.17 6.72997L20.16 11.1183L20.16 11.12C20.16 15.6602 16.8475 19.9528 12.3117 21.2067C12.1114 21.2611 11.8885 21.2611 11.6883 21.2067C7.15239 19.9528 3.83997 15.6602 3.83997 11.12V6.72997C3.83997 6.49917 3.93198 6.20483 4.11865 5.92715C4.30519 5.64966 4.54303 5.45311 4.76009 5.36572Z" fill="white"/>
</svg>
