<svg width="24" height="24" viewBox="0 0 24 24" fill="none" xmlns="http://www.w3.org/2000/svg">
<path fill-rule="evenodd" clip-rule="evenodd" d="M8.25 12C8.25 9.92894 9.92893 8.25001 12 8.25001C14.0711 8.25001 15.75 9.92894 15.75 12C15.75 14.0711 14.0711 15.75 12 15.75C9.92893 15.75 8.25 14.0711 8.25 12ZM12 9.75001C10.7574 9.75001 9.75 10.7574 9.75 12C9.75 13.2426 10.7574 14.25 12 14.25C13.2426 14.25 14.25 13.2426 14.25 12C14.25 10.7574 13.2426 9.75001 12 9.75001Z" fill="white"/>
<path fill-rule="evenodd" clip-rule="evenodd" d="M7.59248 2.14192C8.75191 1.45655 10.2226 1.87703 10.8946 3.00653L10.8991 3.01423L11.0091 3.20423L11.0107 3.20701C11.3807 3.85246 11.7666 4.0075 12.0012 4.0075C12.237 4.0075 12.6261 3.85082 13.0011 3.2039L13.1109 3.01423L13.1154 3.00653C13.7874 1.87703 15.2581 1.45655 16.4175 2.14193L18.1421 3.12882C19.4147 3.85604 19.8463 5.48712 19.1194 6.74521L19.1189 6.74611C18.7439 7.39297 18.8028 7.80619 18.9198 8.00928C19.0369 8.21249 19.3648 8.47 20.11 8.47C21.5616 8.47 22.76 9.65323 22.76 11.12V12.88C22.76 14.3316 21.5768 15.53 20.11 15.53C19.3648 15.53 19.0369 15.7875 18.9198 15.9907C18.8028 16.1938 18.7439 16.607 19.1189 17.2539L19.1212 17.2579C19.8444 18.5235 19.4153 20.1433 18.1421 20.8712L16.4174 21.8581C15.258 22.5434 13.7874 22.123 13.1154 20.9935L13.1109 20.9858L13.0009 20.7958L12.9993 20.793C12.6293 20.1475 12.2434 19.9925 12.0087 19.9925C11.773 19.9925 11.3839 20.1492 11.0089 20.7961L10.8991 20.9858L10.8946 20.9935C10.2226 22.123 8.75199 22.5434 7.59257 21.8581L5.86749 20.871C4.59518 20.1436 4.16378 18.5128 4.8906 17.2548L4.89112 17.2539C5.26606 16.607 5.20721 16.1938 5.09018 15.9907C4.97308 15.7875 4.64521 15.53 3.9 15.53C2.43322 15.53 1.25 14.3316 1.25 12.88V11.12C1.25 9.66836 2.43322 8.47 3.9 8.47C4.64521 8.47 4.97308 8.21249 5.09018 8.00928C5.20721 7.80619 5.26606 7.39297 4.89112 6.74611L4.8906 6.74521C4.16378 5.48725 4.59558 3.85615 5.8679 3.12882L7.59248 2.14192ZM9.60347 3.77018C9.3358 3.32423 8.77209 3.1855 8.35347 3.43456L8.34251 3.44095L6.6121 4.43119C6.06483 4.74392 5.87636 5.45264 6.18923 5.99451C6.72401 6.91748 6.86768 7.929 6.38982 8.75823C5.91192 9.58752 4.96479 9.97001 3.9 9.97001C3.26678 9.97001 2.75 10.4916 2.75 11.12V12.88C2.75 13.5084 3.26678 14.03 3.9 14.03C4.96479 14.03 5.91192 14.4125 6.38982 15.2418C6.86773 16.0711 6.72398 17.0827 6.18909 18.0057C5.87642 18.5476 6.06532 19.2564 6.61251 19.5691L8.34251 20.5591L8.35347 20.5654C8.77208 20.8145 9.33578 20.6758 9.60345 20.2299L9.71112 20.0439C10.246 19.1211 11.052 18.4925 12.0087 18.4925C12.9662 18.4925 13.77 19.1219 14.3 20.0458L14.3007 20.047L14.4065 20.2298C14.6742 20.6758 15.2379 20.8145 15.6565 20.5654L15.6675 20.5591L17.3979 19.5688C17.9438 19.2569 18.1351 18.5578 17.8198 18.0038C17.2858 17.0813 17.1426 16.0705 17.6202 15.2418C18.0981 14.4125 19.0452 14.03 20.11 14.03C20.7432 14.03 21.26 13.5084 21.26 12.88V11.12C21.26 10.4868 20.7384 9.97001 20.11 9.97001C19.0452 9.97001 18.0981 9.58752 17.6202 8.75823C17.1423 7.92898 17.286 6.91743 17.8208 5.99444C18.1336 5.45258 17.9447 4.74367 17.3975 4.43095L15.6675 3.44095L15.6565 3.43456C15.2379 3.1855 14.6742 3.32423 14.4065 3.77018L14.2989 3.95611C13.764 4.87891 12.958 5.5075 12.0012 5.5075C11.0439 5.5075 10.2402 4.87824 9.71021 3.95454L9.70933 3.953L9.60347 3.77018Z" fill="white"/>
</svg>
