<svg width="24" height="24" viewBox="0 0 24 24" fill="none" xmlns="http://www.w3.org/2000/svg">
<path fill-rule="evenodd" clip-rule="evenodd" d="M22.7492 12.964C22.7497 12.8998 22.75 12.8352 22.75 12.77V6.44C22.75 4.67 22.5462 3.26264 21.6398 2.35792C20.7339 1.45371 19.3247 1.25 17.55 1.25H6.44C4.66993 1.25 3.26304 1.4538 2.35842 2.35842C1.4538 3.26304 1.25 4.66993 1.25 6.44V12.78C1.25 12.8423 1.25025 12.9041 1.25078 12.9655C1.25026 12.9769 1.25 12.9884 1.25 13C1.25 13.0171 1.25057 13.034 1.25169 13.0508C1.27286 14.6935 1.50033 16.0038 2.35892 16.8608C3.26422 17.7644 4.67161 17.9649 6.44109 17.96H11.25V21.25H7.5C7.08579 21.25 6.75 21.5858 6.75 22C6.75 22.4142 7.08579 22.75 7.5 22.75H16.5C16.9142 22.75 17.25 22.4142 17.25 22C17.25 21.5858 16.9142 21.25 16.5 21.25H12.75V17.96H17.56C19.3286 17.96 20.7361 17.7591 21.6411 16.8558C22.4978 16.0007 22.7261 14.6943 22.7482 13.053C22.7494 13.0355 22.75 13.0178 22.75 13C22.75 12.9879 22.7497 12.9759 22.7492 12.964ZM3.41908 3.41908C2.9912 3.84696 2.75 4.66007 2.75 6.44V12.25H21.25V6.44C21.25 4.66 21.0088 3.84736 20.5802 3.41958C20.1511 2.99129 19.3353 2.75 17.55 2.75H6.44C4.66007 2.75 3.84696 2.9912 3.41908 3.41908ZM20.5814 15.7942C20.921 15.4552 21.1433 14.8723 21.2201 13.75H2.77941C2.85572 14.8744 3.07813 15.4594 3.41858 15.7992C3.8456 16.2254 4.65785 16.465 6.43789 16.46L6.44 16.46L17.56 16.46C19.3414 16.46 20.1539 16.2209 20.5814 15.7942Z" fill="white"/>
</svg>
