<svg width="24" height="24" viewBox="0 0 24 24" fill="none" xmlns="http://www.w3.org/2000/svg">
<path d="M12.75 9.65997C12.75 9.24576 12.4142 8.90997 12 8.90997C11.5858 8.90997 11.25 9.24576 11.25 9.65997V12.45C11.25 12.6489 11.329 12.8397 11.4697 12.9803L12.8697 14.3803C13.1626 14.6732 13.6374 14.6732 13.9303 14.3803C14.2232 14.0874 14.2232 13.6125 13.9303 13.3196L12.75 12.1393V9.65997Z" fill="white"/>
<path fill-rule="evenodd" clip-rule="evenodd" d="M11.46 1.25C10.6997 1.25 9.90789 1.38983 9.22615 1.87967C8.53667 2.37507 8.06236 3.154 7.79265 4.2272C7.78973 4.23885 7.78708 4.25056 7.78472 4.26233L7.34752 6.43937C5.7597 7.76927 4.75 9.76667 4.75 12C4.75 14.2389 5.76025 16.2341 7.34817 17.5639L7.78472 19.7377C7.78708 19.7494 7.78973 19.7612 7.79265 19.7728C8.06236 20.846 8.53667 21.6249 9.22615 22.1203C9.90789 22.6102 10.6997 22.75 11.46 22.75H12.55C13.3107 22.75 14.0997 22.61 14.7799 22.1218C15.4671 21.6285 15.9413 20.8536 16.2163 19.7873C16.2193 19.7755 16.2221 19.7636 16.2245 19.7517L16.6806 17.5427C18.2497 16.2129 19.25 14.2189 19.25 12C19.25 9.78059 18.2528 7.79418 16.6821 6.46431L16.2245 4.24834C16.2221 4.2364 16.2193 4.22452 16.2163 4.21271C15.9413 3.14638 15.4671 2.37151 14.7799 1.87822C14.0997 1.38996 13.3107 1.25 12.55 1.25H11.46ZM15.0027 7.09526C15.1847 7.2074 15.3601 7.32951 15.5281 7.46086C15.5395 7.46975 15.5511 7.4783 15.5629 7.48649C16.8951 8.53955 17.75 10.1699 17.75 12C17.75 13.81 16.9116 15.4321 15.6029 16.4876L15.5982 16.4904C15.5874 16.4971 15.5767 16.504 15.5662 16.5112C15.5532 16.5201 15.5405 16.5294 15.5281 16.5391C14.5558 17.2993 13.3373 17.75 12 17.75C10.6814 17.75 9.47158 17.3084 8.49859 16.5565C8.48409 16.5453 8.46923 16.5347 8.45404 16.5246C8.44394 16.518 8.4337 16.5115 8.42331 16.5054C7.09663 15.4496 6.25 13.8281 6.25 12C6.25 10.1693 7.10543 8.53848 8.4384 7.48546C8.45908 7.4725 8.47918 7.45849 8.49862 7.44346C9.09258 6.9845 9.77475 6.64115 10.5161 6.44328C10.9895 6.3172 11.4869 6.25 12 6.25C13.1005 6.25 14.1288 6.55911 15.0027 7.09526ZM11.3682 4.77715C10.5661 4.84638 9.80125 5.04623 9.09517 5.35533L9.25169 4.5759C9.46204 3.75026 9.78058 3.32836 10.1014 3.09783C10.4322 2.86017 10.8704 2.75 11.46 2.75H12.55C13.1394 2.75 13.5754 2.86004 13.9052 3.09678C14.2258 3.32689 14.5444 3.74778 14.7593 4.57016L14.923 5.36262C14.0301 4.96836 13.0421 4.75 12 4.75C11.7871 4.75 11.5764 4.75917 11.3682 4.77715ZM12 19.25C12.7216 19.25 13.4172 19.1453 14.0733 18.95C14.3647 18.8633 14.6484 18.7586 14.923 18.6374L14.7593 19.4298C14.5444 20.2522 14.2258 20.6731 13.9052 20.9032C13.5754 21.14 13.1394 21.25 12.55 21.25H11.46C10.8704 21.25 10.4322 21.1398 10.1014 20.9022C9.78058 20.6716 9.46204 20.2497 9.25169 19.4241L9.09484 18.6431C9.98498 19.0342 10.9671 19.25 12 19.25Z" fill="white"/>
</svg>
