<svg width="24" height="24" viewBox="0 0 24 24" fill="none" xmlns="http://www.w3.org/2000/svg">
<path fill-rule="evenodd" clip-rule="evenodd" d="M8.75 16C8.75 14.2051 10.2051 12.75 12 12.75C13.7949 12.75 15.25 14.2051 15.25 16C15.25 17.7949 13.7949 19.25 12 19.25C10.2051 19.25 8.75 17.7949 8.75 16ZM12 14.25C11.0335 14.25 10.25 15.0335 10.25 16C10.25 16.9665 11.0335 17.75 12 17.75C12.9665 17.75 13.75 16.9665 13.75 16C13.75 15.0335 12.9665 14.25 12 14.25Z" fill="white"/>
<path fill-rule="evenodd" clip-rule="evenodd" d="M21.5303 10.4697C20.8535 9.79288 19.9149 9.4711 18.75 9.33546V8C18.75 6.30013 18.5003 4.58088 17.4591 3.28826C16.3896 1.96061 14.6284 1.25 12 1.25C9.37164 1.25 7.61038 1.96061 6.54093 3.28826C5.49969 4.58088 5.25 6.30013 5.25 8V9.33546C4.08514 9.4711 3.14646 9.79288 2.46967 10.4697C1.48116 11.4582 1.25 13.0054 1.25 15V17C1.25 18.9946 1.48116 20.5418 2.46967 21.5303C3.45818 22.5188 5.00536 22.75 7 22.75H17C18.9946 22.75 20.5418 22.5188 21.5303 21.5303C22.5188 20.5418 22.75 18.9946 22.75 17V15C22.75 13.0054 22.5188 11.4582 21.5303 10.4697ZM7.70907 4.22924C7.00031 5.10912 6.75 6.38987 6.75 8V9.25127C6.83253 9.25041 6.91587 9.25 7 9.25H17C17.0841 9.25 17.1675 9.25041 17.25 9.25127V8C17.25 6.38987 16.9997 5.10912 16.2909 4.22924C15.6104 3.38439 14.3716 2.75 12 2.75C9.62836 2.75 8.38962 3.38439 7.70907 4.22924ZM2.75 15C2.75 12.9946 3.01884 12.0418 3.53033 11.5303C4.04182 11.0188 4.99464 10.75 7 10.75H17C19.0054 10.75 19.9582 11.0188 20.4697 11.5303C20.9812 12.0418 21.25 12.9946 21.25 15V17C21.25 19.0054 20.9812 19.9582 20.4697 20.4697C19.9582 20.9812 19.0054 21.25 17 21.25H7C4.99464 21.25 4.04182 20.9812 3.53033 20.4697C3.01884 19.9582 2.75 19.0054 2.75 17V15Z" fill="white"/>
</svg>
